<?xml version="1.0" encoding="UTF-8"?>
<!DOCTYPE svg PUBLIC "-//W3C//DTD SVG 1.1//EN" "http://www.w3.org/Graphics/SVG/1.1/DTD/svg11.dtd">
<svg xmlns="http://www.w3.org/2000/svg" version="1.1" width="512px" height="512px" style="shape-rendering:geometricPrecision; text-rendering:geometricPrecision; image-rendering:optimizeQuality; fill-rule:evenodd; clip-rule:evenodd" xmlns:xlink="http://www.w3.org/1999/xlink">
<g><path style="opacity:0.946" fill="#c444fb" d="M 181.5,147.5 C 141.5,147.5 101.5,147.5 61.5,147.5C 79.2665,136.891 98.5999,131.891 119.5,132.5C 141.575,132.186 162.242,137.186 181.5,147.5 Z"/></g>
<g><path style="opacity:0.945" fill="#c444fb" d="M 449.5,147.5 C 409.5,147.5 369.5,147.5 329.5,147.5C 358.957,132.318 389.957,128.485 422.5,136C 432.204,138.394 441.204,142.228 449.5,147.5 Z"/></g>
<g><path style="opacity:0.983" fill="#bf45fa" d="M 61.5,147.5 C 101.5,147.5 141.5,147.5 181.5,147.5C 187.005,149.749 192.005,152.749 196.5,156.5C 146.833,156.5 97.1667,156.5 47.5,156.5C 51.6243,152.719 56.2909,149.719 61.5,147.5 Z"/></g>
<g><path style="opacity:0.983" fill="#bf45fa" d="M 329.5,147.5 C 369.5,147.5 409.5,147.5 449.5,147.5C 454.709,149.719 459.376,152.719 463.5,156.5C 413.833,156.5 364.167,156.5 314.5,156.5C 318.995,152.749 323.995,149.749 329.5,147.5 Z"/></g>
<g><path style="opacity:0.987" fill="#bc45f9" d="M 47.5,156.5 C 97.1667,156.5 146.833,156.5 196.5,156.5C 199.135,157.811 201.469,159.478 203.5,161.5C 149.5,161.5 95.5,161.5 41.5,161.5C 43.0905,159.367 45.0905,157.701 47.5,156.5 Z"/></g>
<g><path style="opacity:0.987" fill="#bc45f9" d="M 314.5,156.5 C 364.167,156.5 413.833,156.5 463.5,156.5C 465.909,157.701 467.909,159.367 469.5,161.5C 415.5,161.5 361.5,161.5 307.5,161.5C 309.531,159.478 311.865,157.811 314.5,156.5 Z"/></g>
<g><path style="opacity:0.981" fill="#b846f7" d="M 41.5,161.5 C 95.5,161.5 149.5,161.5 203.5,161.5C 209.623,165.234 214.956,169.9 219.5,175.5C 192.167,175.5 164.833,175.5 137.5,175.5C 125.5,174.167 113.5,174.167 101.5,175.5C 76.8333,175.5 52.1667,175.5 27.5,175.5C 31.8333,170.5 36.5,165.833 41.5,161.5 Z"/></g>
<g><path style="opacity:0.981" fill="#b846f7" d="M 307.5,161.5 C 361.5,161.5 415.5,161.5 469.5,161.5C 474.5,165.833 479.167,170.5 483.5,175.5C 458.833,175.5 434.167,175.5 409.5,175.5C 397.169,174.194 384.836,174.194 372.5,175.5C 345.5,175.5 318.5,175.5 291.5,175.5C 296.044,169.9 301.377,165.234 307.5,161.5 Z"/></g>
<g><path style="opacity:0.966" fill="#b247f5" d="M 27.5,175.5 C 52.1667,175.5 76.8333,175.5 101.5,175.5C 90.2393,178.964 79.906,184.297 70.5,191.5C 52.5,191.5 34.5,191.5 16.5,191.5C 19.6856,185.782 23.3523,180.448 27.5,175.5 Z"/></g>
<g><path style="opacity:0.966" fill="#b247f5" d="M 137.5,175.5 C 164.833,175.5 192.167,175.5 219.5,175.5C 225.278,179.94 229.945,185.273 233.5,191.5C 213.833,191.5 194.167,191.5 174.5,191.5C 162.977,184.217 150.644,178.884 137.5,175.5 Z"/></g>
<g><path style="opacity:0.967" fill="#b247f5" d="M 291.5,175.5 C 318.5,175.5 345.5,175.5 372.5,175.5C 359.776,179.08 347.776,184.413 336.5,191.5C 316.5,191.5 296.5,191.5 276.5,191.5C 280.795,185.537 285.795,180.204 291.5,175.5 Z"/></g>
<g><path style="opacity:0.966" fill="#b247f5" d="M 409.5,175.5 C 434.167,175.5 458.833,175.5 483.5,175.5C 487.648,180.448 491.314,185.782 494.5,191.5C 476.5,191.5 458.5,191.5 440.5,191.5C 431.094,184.297 420.761,178.964 409.5,175.5 Z"/></g>
<g><path style="opacity:0.974" fill="#ad48f4" d="M 16.5,191.5 C 34.5,191.5 52.5,191.5 70.5,191.5C 68.8577,192.803 67.1911,194.136 65.5,195.5C 48.5,195.5 31.5,195.5 14.5,195.5C 14.7329,193.938 15.3995,192.605 16.5,191.5 Z"/></g>
<g><path style="opacity:0.97" fill="#ad48f4" d="M 174.5,191.5 C 194.167,191.5 213.833,191.5 233.5,191.5C 234.674,192.514 235.34,193.847 235.5,195.5C 216.833,195.5 198.167,195.5 179.5,195.5C 177.611,194.396 175.945,193.063 174.5,191.5 Z"/></g>
<g><path style="opacity:0.965" fill="#ad48f4" d="M 276.5,191.5 C 296.5,191.5 316.5,191.5 336.5,191.5C 335.055,193.063 333.389,194.396 331.5,195.5C 312.167,195.5 292.833,195.5 273.5,195.5C 273.738,193.596 274.738,192.262 276.5,191.5 Z"/></g>
<g><path style="opacity:0.974" fill="#ad48f4" d="M 440.5,191.5 C 458.5,191.5 476.5,191.5 494.5,191.5C 495.6,192.605 496.267,193.938 496.5,195.5C 479.5,195.5 462.5,195.5 445.5,195.5C 443.809,194.136 442.142,192.803 440.5,191.5 Z"/></g>
<g><path style="opacity:0.971" fill="#aa48f2" d="M 14.5,195.5 C 31.5,195.5 48.5,195.5 65.5,195.5C 63.0584,198.729 60.3918,201.729 57.5,204.5C 41.5,204.5 25.5,204.5 9.5,204.5C 10.9287,201.304 12.5954,198.304 14.5,195.5 Z"/></g>
<g><path style="opacity:0.965" fill="#aa48f2" d="M 179.5,195.5 C 198.167,195.5 216.833,195.5 235.5,195.5C 236.681,198.638 236.681,201.638 235.5,204.5C 220.167,204.5 204.833,204.5 189.5,204.5C 186.141,201.471 182.808,198.471 179.5,195.5 Z"/></g>
<g><path style="opacity:0.968" fill="#aa48f2" d="M 273.5,195.5 C 292.833,195.5 312.167,195.5 331.5,195.5C 328.149,198.848 324.482,201.848 320.5,204.5C 302.167,204.5 283.833,204.5 265.5,204.5C 267.942,201.271 270.608,198.271 273.5,195.5 Z"/></g>
<g><path style="opacity:0.971" fill="#aa48f2" d="M 445.5,195.5 C 462.5,195.5 479.5,195.5 496.5,195.5C 498.405,198.304 500.071,201.304 501.5,204.5C 485.5,204.5 469.5,204.5 453.5,204.5C 450.608,201.729 447.942,198.729 445.5,195.5 Z"/></g>
<g><path style="opacity:0.97" fill="#a549f1" d="M 9.5,204.5 C 25.5,204.5 41.5,204.5 57.5,204.5C 55.0809,209.009 52.4143,213.342 49.5,217.5C 34.5,217.5 19.5,217.5 4.5,217.5C 6.3629,213.245 8.02956,208.912 9.5,204.5 Z"/></g>
<g><path style="opacity:0.951" fill="#a549f1" d="M 189.5,204.5 C 204.833,204.5 220.167,204.5 235.5,204.5C 235.201,208.105 234.035,211.439 232,214.5C 230.871,216.141 229.371,217.141 227.5,217.5C 219.167,217.5 210.833,217.5 202.5,217.5C 197.833,213.5 193.5,209.167 189.5,204.5 Z"/></g>
<g><path style="opacity:0.97" fill="#a549f1" d="M 265.5,204.5 C 283.833,204.5 302.167,204.5 320.5,204.5C 317.189,209.445 313.189,213.778 308.5,217.5C 291.167,217.5 273.833,217.5 256.5,217.5C 259.253,212.992 262.253,208.659 265.5,204.5 Z"/></g>
<g><path style="opacity:0.97" fill="#a549f1" d="M 453.5,204.5 C 469.5,204.5 485.5,204.5 501.5,204.5C 502.97,208.912 504.637,213.245 506.5,217.5C 491.5,217.5 476.5,217.5 461.5,217.5C 458.586,213.342 455.919,209.009 453.5,204.5 Z"/></g>
<g><path style="opacity:0.976" fill="#a04aef" d="M 4.5,217.5 C 19.5,217.5 34.5,217.5 49.5,217.5C 48.3024,220.426 47.3024,223.426 46.5,226.5C 31.8333,226.5 17.1667,226.5 2.5,226.5C 3.32336,223.539 3.99003,220.539 4.5,217.5 Z"/></g>
<g><path style="opacity:0.811" fill="#a14aef" d="M 202.5,217.5 C 210.833,217.5 219.167,217.5 227.5,217.5C 226.251,219.136 224.584,220.303 222.5,221C 215.173,223.1 208.507,221.933 202.5,217.5 Z"/></g>
<g><path style="opacity:0.971" fill="#a04aef" d="M 256.5,217.5 C 273.833,217.5 291.167,217.5 308.5,217.5C 306.542,220.792 304.209,223.792 301.5,226.5C 284.5,226.5 267.5,226.5 250.5,226.5C 251.759,222.975 253.759,219.975 256.5,217.5 Z"/></g>
<g><path style="opacity:0.976" fill="#a04aef" d="M 461.5,217.5 C 476.5,217.5 491.5,217.5 506.5,217.5C 507.01,220.539 507.677,223.539 508.5,226.5C 493.833,226.5 479.167,226.5 464.5,226.5C 463.698,223.426 462.698,220.426 461.5,217.5 Z"/></g>
<g><path style="opacity:0.976" fill="#9d4bee" d="M 2.5,226.5 C 17.1667,226.5 31.8333,226.5 46.5,226.5C 45.5592,228.05 44.8925,229.716 44.5,231.5C 30.1667,231.5 15.8333,231.5 1.5,231.5C 1.62867,229.784 1.962,228.117 2.5,226.5 Z"/></g>
<g><path style="opacity:0.969" fill="#9d4bee" d="M 250.5,226.5 C 267.5,226.5 284.5,226.5 301.5,226.5C 300.396,228.389 299.063,230.055 297.5,231.5C 280.5,231.5 263.5,231.5 246.5,231.5C 247.124,229.246 248.457,227.579 250.5,226.5 Z"/></g>
<g><path style="opacity:0.976" fill="#9d4bee" d="M 464.5,226.5 C 479.167,226.5 493.833,226.5 508.5,226.5C 509.038,228.117 509.371,229.784 509.5,231.5C 495.167,231.5 480.833,231.5 466.5,231.5C 466.107,229.716 465.441,228.05 464.5,226.5 Z"/></g>
<g><path style="opacity:0.976" fill="#9b4bee" d="M 1.5,231.5 C 15.8333,231.5 30.1667,231.5 44.5,231.5C 44.6716,232.492 44.3382,233.158 43.5,233.5C 29.5,233.5 15.5,233.5 1.5,233.5C 1.5,232.833 1.5,232.167 1.5,231.5 Z"/></g>
<g><path style="opacity:0.972" fill="#9b4bee" d="M 246.5,231.5 C 263.5,231.5 280.5,231.5 297.5,231.5C 297.167,232.167 296.833,232.833 296.5,233.5C 279.5,233.5 262.5,233.5 245.5,233.5C 245.328,232.508 245.662,231.842 246.5,231.5 Z"/></g>
<g><path style="opacity:0.976" fill="#9b4bee" d="M 466.5,231.5 C 480.833,231.5 495.167,231.5 509.5,231.5C 509.5,232.167 509.5,232.833 509.5,233.5C 495.5,233.5 481.5,233.5 467.5,233.5C 466.662,233.158 466.328,232.492 466.5,231.5 Z"/></g>
<g><path style="opacity:0.975" fill="#984bec" d="M 1.5,233.5 C 15.5,233.5 29.5,233.5 43.5,233.5C 42.704,238.147 42.0373,242.814 41.5,247.5C 27.5,247.5 13.5,247.5 -0.5,247.5C -0.5,245.167 -0.5,242.833 -0.5,240.5C 0.166667,238.167 0.833333,235.833 1.5,233.5 Z"/></g>
<g><path style="opacity:0.97" fill="#984bec" d="M 245.5,233.5 C 262.5,233.5 279.5,233.5 296.5,233.5C 293.167,238.167 289.833,242.833 286.5,247.5C 269.5,247.5 252.5,247.5 235.5,247.5C 238.478,242.531 241.811,237.865 245.5,233.5 Z"/></g>
<g><path style="opacity:0.975" fill="#984bec" d="M 467.5,233.5 C 481.5,233.5 495.5,233.5 509.5,233.5C 510.167,235.833 510.833,238.167 511.5,240.5C 511.5,242.833 511.5,245.167 511.5,247.5C 497.5,247.5 483.5,247.5 469.5,247.5C 468.963,242.814 468.296,238.147 467.5,233.5 Z"/></g>
<g><path style="opacity:0.979" fill="#924cea" d="M -0.5,247.5 C 13.5,247.5 27.5,247.5 41.5,247.5C 40.9028,251.924 40.9028,256.257 41.5,260.5C 27.5,260.5 13.5,260.5 -0.5,260.5C -0.5,256.167 -0.5,251.833 -0.5,247.5 Z"/></g>
<g><path style="opacity:0.972" fill="#924cea" d="M 235.5,247.5 C 252.5,247.5 269.5,247.5 286.5,247.5C 283.253,251.659 280.253,255.992 277.5,260.5C 260.5,260.5 243.5,260.5 226.5,260.5C 229.747,256.341 232.747,252.008 235.5,247.5 Z"/></g>
<g><path style="opacity:0.979" fill="#924cea" d="M 469.5,247.5 C 483.5,247.5 497.5,247.5 511.5,247.5C 511.5,251.833 511.5,256.167 511.5,260.5C 497.5,260.5 483.5,260.5 469.5,260.5C 470.097,256.257 470.097,251.924 469.5,247.5 Z"/></g>
<g><path style="opacity:0.976" fill="#8c4de8" d="M -0.5,260.5 C 13.5,260.5 27.5,260.5 41.5,260.5C 41.5045,264.534 41.8379,268.534 42.5,272.5C 28.5,272.5 14.5,272.5 0.5,272.5C 0.67158,271.508 0.338246,270.842 -0.5,270.5C -0.5,267.167 -0.5,263.833 -0.5,260.5 Z"/></g>
<g><path style="opacity:0.971" fill="#8c4de8" d="M 226.5,260.5 C 243.5,260.5 260.5,260.5 277.5,260.5C 274.833,264.5 272.167,268.5 269.5,272.5C 252.5,272.5 235.5,272.5 218.5,272.5C 221.167,268.5 223.833,264.5 226.5,260.5 Z"/></g>
<g><path style="opacity:0.976" fill="#8c4de8" d="M 469.5,260.5 C 483.5,260.5 497.5,260.5 511.5,260.5C 511.5,263.833 511.5,267.167 511.5,270.5C 510.662,270.842 510.328,271.508 510.5,272.5C 496.5,272.5 482.5,272.5 468.5,272.5C 469.162,268.534 469.495,264.534 469.5,260.5 Z"/></g>
<g><path style="opacity:0.976" fill="#894ee7" d="M 0.5,272.5 C 14.5,272.5 28.5,272.5 42.5,272.5C 42.8333,273.167 43.1667,273.833 43.5,274.5C 29.1667,274.5 14.8333,274.5 0.5,274.5C 0.5,273.833 0.5,273.167 0.5,272.5 Z"/></g>
<g><path style="opacity:0.968" fill="#894ee7" d="M 218.5,272.5 C 235.5,272.5 252.5,272.5 269.5,272.5C 269.167,273.5 268.5,274.167 267.5,274.5C 250.833,274.5 234.167,274.5 217.5,274.5C 217.328,273.508 217.662,272.842 218.5,272.5 Z"/></g>
<g><path style="opacity:0.976" fill="#894ee7" d="M 468.5,272.5 C 482.5,272.5 496.5,272.5 510.5,272.5C 510.5,273.167 510.5,273.833 510.5,274.5C 496.167,274.5 481.833,274.5 467.5,274.5C 467.833,273.833 468.167,273.167 468.5,272.5 Z"/></g>
<g><path style="opacity:0.974" fill="#864ee6" d="M 0.5,274.5 C 14.8333,274.5 29.1667,274.5 43.5,274.5C 44.0636,279.093 45.397,283.426 47.5,287.5C 32.8333,287.5 18.1667,287.5 3.5,287.5C 2.12181,283.279 1.12181,278.946 0.5,274.5 Z"/></g>
<g><path style="opacity:0.97" fill="#864ee6" d="M 217.5,274.5 C 234.167,274.5 250.833,274.5 267.5,274.5C 265.237,279.365 262.237,283.698 258.5,287.5C 241.5,287.5 224.5,287.5 207.5,287.5C 210.109,282.617 213.443,278.284 217.5,274.5 Z"/></g>
<g><path style="opacity:0.974" fill="#864ee6" d="M 467.5,274.5 C 481.833,274.5 496.167,274.5 510.5,274.5C 509.878,278.946 508.878,283.279 507.5,287.5C 492.833,287.5 478.167,287.5 463.5,287.5C 465.603,283.426 466.936,279.093 467.5,274.5 Z"/></g>
<g><path style="opacity:0.973" fill="#7f4fe3" d="M 3.5,287.5 C 18.1667,287.5 32.8333,287.5 47.5,287.5C 49.655,293.143 52.3217,298.477 55.5,303.5C 39.8333,303.5 24.1667,303.5 8.5,303.5C 6.03474,298.436 4.36807,293.103 3.5,287.5 Z"/></g>
<g><path style="opacity:0.969" fill="#7f4fe3" d="M 207.5,287.5 C 224.5,287.5 241.5,287.5 258.5,287.5C 255.324,293.189 251.658,298.523 247.5,303.5C 229.5,303.5 211.5,303.5 193.5,303.5C 197.823,297.845 202.49,292.512 207.5,287.5 Z"/></g>
<g><path style="opacity:0.973" fill="#7f4fe3" d="M 463.5,287.5 C 478.167,287.5 492.833,287.5 507.5,287.5C 506.632,293.103 504.965,298.436 502.5,303.5C 486.833,303.5 471.167,303.5 455.5,303.5C 458.678,298.477 461.345,293.143 463.5,287.5 Z"/></g>
<g><path style="opacity:0.922" fill="#7f4fe3" d="M 318.5,303.5 C 304.167,303.5 289.833,303.5 275.5,303.5C 279.399,294.282 286.399,289.282 296.5,288.5C 305.964,290.286 313.298,295.286 318.5,303.5 Z"/></g>
<g><path style="opacity:0.971" fill="#7950e1" d="M 8.5,303.5 C 24.1667,303.5 39.8333,303.5 55.5,303.5C 59.3939,307.608 63.0606,311.941 66.5,316.5C 49.1667,316.5 31.8333,316.5 14.5,316.5C 12.2288,312.291 10.2288,307.958 8.5,303.5 Z"/></g>
<g><path style="opacity:0.971" fill="#7950e1" d="M 193.5,303.5 C 211.5,303.5 229.5,303.5 247.5,303.5C 244.167,307.833 240.833,312.167 237.5,316.5C 217.833,316.5 198.167,316.5 178.5,316.5C 183.179,311.822 188.179,307.489 193.5,303.5 Z"/></g>
<g><path style="opacity:0.965" fill="#7950e1" d="M 275.5,303.5 C 289.833,303.5 304.167,303.5 318.5,303.5C 323.193,307.861 327.859,312.195 332.5,316.5C 313.5,316.5 294.5,316.5 275.5,316.5C 274.167,312.167 274.167,307.833 275.5,303.5 Z"/></g>
<g><path style="opacity:0.971" fill="#7950e1" d="M 455.5,303.5 C 471.167,303.5 486.833,303.5 502.5,303.5C 500.771,307.958 498.771,312.291 496.5,316.5C 479.167,316.5 461.833,316.5 444.5,316.5C 447.939,311.941 451.606,307.608 455.5,303.5 Z"/></g>
<g><path style="opacity:0.974" fill="#7651e0" d="M 14.5,316.5 C 31.8333,316.5 49.1667,316.5 66.5,316.5C 67.8717,317.512 69.205,318.512 70.5,319.5C 52.5,319.5 34.5,319.5 16.5,319.5C 15.8333,318.5 15.1667,317.5 14.5,316.5 Z"/></g>
<g><path style="opacity:0.962" fill="#7651e0" d="M 178.5,316.5 C 198.167,316.5 217.833,316.5 237.5,316.5C 236.833,317.833 235.833,318.833 234.5,319.5C 214.5,319.5 194.5,319.5 174.5,319.5C 175.436,318.026 176.77,317.026 178.5,316.5 Z"/></g>
<g><path style="opacity:0.969" fill="#7651e0" d="M 275.5,316.5 C 294.5,316.5 313.5,316.5 332.5,316.5C 334.23,317.026 335.564,318.026 336.5,319.5C 316.833,319.5 297.167,319.5 277.5,319.5C 276.599,318.71 275.932,317.71 275.5,316.5 Z"/></g>
<g><path style="opacity:0.974" fill="#7651e0" d="M 444.5,316.5 C 461.833,316.5 479.167,316.5 496.5,316.5C 495.833,317.5 495.167,318.5 494.5,319.5C 476.5,319.5 458.5,319.5 440.5,319.5C 441.795,318.512 443.128,317.512 444.5,316.5 Z"/></g>
<g><path style="opacity:0.968" fill="#7252df" d="M 16.5,319.5 C 34.5,319.5 52.5,319.5 70.5,319.5C 75.9202,323.594 81.5869,327.261 87.5,330.5C 66.1667,330.5 44.8333,330.5 23.5,330.5C 20.7719,327.101 18.4385,323.434 16.5,319.5 Z"/></g>
<g><path style="opacity:0.969" fill="#7252df" d="M 174.5,319.5 C 194.5,319.5 214.5,319.5 234.5,319.5C 231.877,323.791 228.544,327.457 224.5,330.5C 201.167,330.5 177.833,330.5 154.5,330.5C 161.421,327.371 168.088,323.705 174.5,319.5 Z"/></g>
<g><path style="opacity:0.967" fill="#7252df" d="M 277.5,319.5 C 297.167,319.5 316.833,319.5 336.5,319.5C 343.191,323.208 349.858,326.875 356.5,330.5C 333.167,330.5 309.833,330.5 286.5,330.5C 282.372,327.71 279.372,324.043 277.5,319.5 Z"/></g>
<g><path style="opacity:0.968" fill="#7252df" d="M 440.5,319.5 C 458.5,319.5 476.5,319.5 494.5,319.5C 492.561,323.434 490.228,327.101 487.5,330.5C 466.167,330.5 444.833,330.5 423.5,330.5C 429.413,327.261 435.08,323.594 440.5,319.5 Z"/></g>
<g><path style="opacity:0.971" fill="#6d52dd" d="M 23.5,330.5 C 44.8333,330.5 66.1667,330.5 87.5,330.5C 109.802,338.419 132.136,338.419 154.5,330.5C 177.833,330.5 201.167,330.5 224.5,330.5C 220.441,335.562 215.774,339.895 210.5,343.5C 152.167,343.5 93.8333,343.5 35.5,343.5C 30.7923,339.793 26.7923,335.46 23.5,330.5 Z"/></g>
<g><path style="opacity:0.971" fill="#6d52dd" d="M 286.5,330.5 C 309.833,330.5 333.167,330.5 356.5,330.5C 378.869,338.42 401.202,338.42 423.5,330.5C 444.833,330.5 466.167,330.5 487.5,330.5C 484.208,335.46 480.208,339.793 475.5,343.5C 417.167,343.5 358.833,343.5 300.5,343.5C 295.226,339.895 290.559,335.562 286.5,330.5 Z"/></g>
<g><path style="opacity:0.988" fill="#6753db" d="M 35.5,343.5 C 93.8333,343.5 152.167,343.5 210.5,343.5C 205.692,348.976 200.026,353.31 193.5,356.5C 145.833,356.5 98.1667,356.5 50.5,356.5C 44.5888,353.258 39.5888,348.925 35.5,343.5 Z"/></g>
<g><path style="opacity:0.988" fill="#6753db" d="M 300.5,343.5 C 358.833,343.5 417.167,343.5 475.5,343.5C 471.411,348.925 466.411,353.258 460.5,356.5C 412.833,356.5 365.167,356.5 317.5,356.5C 310.974,353.31 305.308,348.976 300.5,343.5 Z"/></g>
<g><path style="opacity:0.983" fill="#6454da" d="M 50.5,356.5 C 98.1667,356.5 145.833,356.5 193.5,356.5C 192.341,358.25 190.674,359.25 188.5,359.5C 143.833,359.5 99.1667,359.5 54.5,359.5C 52.7697,358.974 51.4363,357.974 50.5,356.5 Z"/></g>
<g><path style="opacity:0.983" fill="#6454da" d="M 317.5,356.5 C 365.167,356.5 412.833,356.5 460.5,356.5C 459.564,357.974 458.23,358.974 456.5,359.5C 411.833,359.5 367.167,359.5 322.5,359.5C 320.326,359.25 318.659,358.25 317.5,356.5 Z"/></g>
<g><path style="opacity:0.973" fill="#6055d9" d="M 54.5,359.5 C 99.1667,359.5 143.833,359.5 188.5,359.5C 178.562,366.485 167.562,371.152 155.5,373.5C 132.167,373.5 108.833,373.5 85.5,373.5C 74.2631,370.713 63.9298,366.046 54.5,359.5 Z"/></g>
<g><path style="opacity:0.973" fill="#6055d9" d="M 322.5,359.5 C 367.167,359.5 411.833,359.5 456.5,359.5C 447.07,366.046 436.737,370.713 425.5,373.5C 402.167,373.5 378.833,373.5 355.5,373.5C 343.601,370.762 332.601,366.095 322.5,359.5 Z"/></g>
<g><path style="opacity:0.854" fill="#5c56d7" d="M 85.5,373.5 C 108.833,373.5 132.167,373.5 155.5,373.5C 143.918,377.202 131.918,378.868 119.5,378.5C 107.702,379.053 96.3682,377.387 85.5,373.5 Z"/></g>
<g><path style="opacity:0.86" fill="#5c56d7" d="M 355.5,373.5 C 378.833,373.5 402.167,373.5 425.5,373.5C 414.632,377.387 403.298,379.053 391.5,378.5C 379.082,378.868 367.082,377.202 355.5,373.5 Z"/></g>
</svg>
